<svg width="300" height="300" viewBox="0 0 300 300" fill="none" xmlns="http://www.w3.org/2000/svg">
<rect width="300" height="300" fill="white"/>
<mask id="mask0" mask-type="alpha" maskUnits="userSpaceOnUse" x="0" y="0" width="300" height="300">
<circle cx="150" cy="150" r="150" fill="#C4C4C4"/>
</mask>
<g mask="url(#mask0)">
<rect width="150" height="300" fill="black"/>
<rect x="150" width="150" height="300" fill="#F8832F"/>
</g>
<path d="M37.1797 161.014L48.1367 124.656H59.2266L42.3926 173H32L15.2324 124.656H26.2891L37.1797 161.014ZM88.877 160.316C88.877 158.435 88.2129 156.996 86.8848 156C85.5566 154.982 83.166 153.919 79.7129 152.812C76.2598 151.684 73.526 150.577 71.5117 149.492C66.0221 146.526 63.2773 142.531 63.2773 137.506C63.2773 134.894 64.0078 132.57 65.4688 130.533C66.9518 128.475 69.0658 126.87 71.8105 125.719C74.5775 124.568 77.6764 123.992 81.1074 123.992C84.5605 123.992 87.6374 124.623 90.3379 125.885C93.0384 127.124 95.1302 128.884 96.6133 131.164C98.1185 133.444 98.8711 136.034 98.8711 138.934H88.9102C88.9102 136.72 88.2129 135.005 86.8184 133.787C85.4238 132.548 83.4648 131.928 80.9414 131.928C78.5065 131.928 76.6139 132.448 75.2637 133.488C73.9134 134.507 73.2383 135.857 73.2383 137.539C73.2383 139.111 74.0241 140.428 75.5957 141.49C77.1895 142.553 79.5247 143.549 82.6016 144.479C88.2682 146.183 92.3965 148.297 94.9863 150.82C97.5762 153.344 98.8711 156.487 98.8711 160.25C98.8711 164.434 97.2884 167.721 94.123 170.111C90.9577 172.48 86.6966 173.664 81.3398 173.664C77.6211 173.664 74.2344 172.989 71.1797 171.639C68.125 170.266 65.7897 168.396 64.1738 166.027C62.5801 163.659 61.7832 160.914 61.7832 157.793H71.7773C71.7773 163.128 74.9648 165.795 81.3398 165.795C83.7083 165.795 85.5566 165.319 86.8848 164.367C88.2129 163.393 88.877 162.043 88.877 160.316ZM144.99 173H135.029V152.281H115.605V173H105.645V124.656H115.605V144.246H135.029V124.656H144.99V173Z" fill="#F8832F"/>
<path d="M176.792 162.384C178.198 162.384 179.341 161.997 180.22 161.224C181.099 160.45 181.556 159.422 181.591 158.139H188.736C188.719 160.072 188.191 161.848 187.154 163.465C186.117 165.064 184.693 166.312 182.883 167.209C181.09 168.088 179.104 168.527 176.924 168.527C172.846 168.527 169.629 167.235 167.273 164.651C164.918 162.05 163.74 158.464 163.74 153.894V153.393C163.74 148.998 164.909 145.491 167.247 142.872C169.585 140.253 172.793 138.943 176.871 138.943C180.439 138.943 183.296 139.963 185.44 142.002C187.603 144.023 188.701 146.722 188.736 150.097H181.591C181.556 148.62 181.099 147.425 180.22 146.511C179.341 145.579 178.181 145.113 176.739 145.113C174.964 145.113 173.619 145.764 172.705 147.064C171.809 148.348 171.36 150.439 171.36 153.34V154.131C171.36 157.066 171.809 159.176 172.705 160.459C173.602 161.742 174.964 162.384 176.792 162.384ZM191.9 153.472C191.9 150.642 192.445 148.119 193.535 145.904C194.625 143.689 196.189 141.976 198.229 140.763C200.285 139.55 202.667 138.943 205.374 138.943C209.224 138.943 212.361 140.121 214.787 142.477C217.23 144.832 218.593 148.031 218.874 152.074L218.927 154.025C218.927 158.402 217.705 161.918 215.262 164.572C212.818 167.209 209.54 168.527 205.427 168.527C201.313 168.527 198.026 167.209 195.565 164.572C193.122 161.936 191.9 158.35 191.9 153.814V153.472ZM199.521 154.025C199.521 156.732 200.03 158.807 201.05 160.248C202.069 161.672 203.528 162.384 205.427 162.384C207.272 162.384 208.714 161.681 209.751 160.274C210.788 158.851 211.307 156.583 211.307 153.472C211.307 150.817 210.788 148.761 209.751 147.302C208.714 145.843 207.255 145.113 205.374 145.113C203.511 145.113 202.069 145.843 201.05 147.302C200.03 148.743 199.521 150.984 199.521 154.025ZM222.434 153.524C222.434 149.077 223.427 145.535 225.413 142.898C227.417 140.262 230.15 138.943 233.613 138.943C236.391 138.943 238.685 139.98 240.495 142.055V127.5H248.142V168H241.26L240.891 164.968C238.992 167.341 236.549 168.527 233.561 168.527C230.203 168.527 227.505 167.209 225.466 164.572C223.444 161.918 222.434 158.235 222.434 153.524ZM230.054 154.078C230.054 156.75 230.52 158.798 231.451 160.222C232.383 161.646 233.736 162.357 235.512 162.357C237.867 162.357 239.528 161.364 240.495 159.378V148.119C239.546 146.133 237.902 145.14 235.564 145.14C231.891 145.14 230.054 148.119 230.054 154.078ZM267.179 168.527C262.995 168.527 259.585 167.244 256.948 164.678C254.329 162.111 253.02 158.692 253.02 154.421V153.683C253.02 150.817 253.573 148.26 254.681 146.01C255.788 143.742 257.353 142.002 259.374 140.789C261.413 139.559 263.733 138.943 266.335 138.943C270.237 138.943 273.305 140.174 275.537 142.635C277.787 145.096 278.912 148.585 278.912 153.103V156.214H260.745C260.991 158.077 261.729 159.571 262.96 160.696C264.208 161.821 265.781 162.384 267.68 162.384C270.615 162.384 272.909 161.32 274.562 159.193L278.306 163.386C277.163 165.003 275.616 166.269 273.665 167.183C271.714 168.079 269.552 168.527 267.179 168.527ZM266.309 145.113C264.797 145.113 263.566 145.623 262.617 146.643C261.686 147.662 261.088 149.121 260.824 151.02H271.424V150.413C271.389 148.726 270.932 147.425 270.053 146.511C269.174 145.579 267.926 145.113 266.309 145.113Z" fill="black"/>
</svg>
