<svg width="26" height="26" viewBox="0 0 26 26" fill="none" xmlns="http://www.w3.org/2000/svg">
<path opacity="0.7" d="M13 0.65625C15.2344 0.65625 17.3672 1.26562 19.2969 2.38281C21.2266 3.5 22.75 5.02344 23.8672 6.95312C24.9844 8.88281 25.5938 11.0156 25.5938 13.25C25.5938 15.5352 24.9844 17.6172 23.8672 19.5469C22.75 21.4766 21.2266 23.0508 19.2969 24.168C17.3672 25.2852 15.2344 25.8438 13 25.8438C10.7148 25.8438 8.63281 25.2852 6.70312 24.168C4.77344 23.0508 3.19922 21.4766 2.08203 19.5469C0.964844 17.6172 0.40625 15.5352 0.40625 13.25C0.40625 11.0156 0.964844 8.88281 2.08203 6.95312C3.19922 5.02344 4.77344 3.5 6.70312 2.38281C8.63281 1.26562 10.7148 0.65625 13 0.65625ZM21.3281 6.44531C20.9219 6.95312 20.4141 7.51172 19.7539 8.07031C18.4336 9.1875 16.9609 10.0508 15.3359 10.7109C15.6406 11.4219 15.9453 12.1328 16.25 12.8438C17.7734 12.6406 19.3984 12.6406 21.2266 12.793C22.1406 12.8945 23.0039 13.0469 23.7656 13.1484C23.7148 11.9297 23.5117 10.7109 23.1055 9.59375C22.6992 8.47656 22.0898 7.41016 21.3281 6.44531ZM20.1094 5.22656C18.7891 4.05859 17.2656 3.24609 15.5898 2.83984C13.8633 2.43359 12.1875 2.38281 10.4609 2.78906C11.8828 4.71875 13.2539 6.85156 14.4727 9.08594C16.0977 8.52734 17.4688 7.76562 18.6875 6.75C19.2969 6.24219 19.8047 5.73438 20.1094 5.22656ZM8.42969 3.55078C6.90625 4.26172 5.58594 5.27734 4.57031 6.59766C3.50391 7.91797 2.79297 9.44141 2.48828 11.0664C3.40234 11.0664 4.46875 11.0156 5.73828 10.9141C8.07422 10.7109 10.2578 10.3555 12.3906 9.74609C11.1719 7.5625 9.85156 5.48047 8.42969 3.55078ZM2.23438 13.25C2.23438 14.6211 2.4375 15.9414 2.94531 17.1602C3.45312 18.3789 4.11328 19.4961 5.02734 20.4609C5.94141 18.8867 7.16016 17.4648 8.78516 16.1445C10.5117 14.7227 12.2891 13.7578 14.168 13.25C13.9141 12.6406 13.6094 12.0312 13.3047 11.4219C11.0195 12.1328 8.58203 12.5898 5.94141 12.793C4.51953 12.8945 3.25 12.9453 2.23438 12.9453V13.25ZM6.39844 21.7305C7.92188 23 9.69922 23.7617 11.6289 23.9648C13.5586 24.168 15.4375 23.9141 17.2148 23.1523C16.7578 20.5625 15.9961 17.8711 14.9297 15.0273C12.8477 15.7383 11.0195 16.7539 9.44531 18.0742C8.02344 19.293 7.00781 20.5117 6.39844 21.7305ZM18.9922 22.1875C20.2109 21.375 21.2266 20.3594 22.0391 19.0898C22.8516 17.8711 23.3594 16.5 23.6133 14.9766C23.0039 14.7734 22.2422 14.6211 21.3789 14.5195C19.8047 14.3164 18.332 14.3164 16.9102 14.5195C17.875 17.2617 18.5859 19.8008 18.9922 22.1875Z" fill="white"/>
</svg>
