<svg width="23" height="24" viewBox="0 0 23 24" fill="none" xmlns="http://www.w3.org/2000/svg">
<path opacity="0.7" d="M22.75 2.14453C22.75 1.78906 22.5977 1.48438 22.3438 1.23047C22.0898 1.02734 21.7852 0.875 21.4805 0.875H1.26953C0.863281 0.875 0.558594 1.02734 0.355469 1.23047C0.101562 1.48438 0 1.78906 0 2.14453V22.3555C0 22.7109 0.101562 23.0156 0.355469 23.2695C0.558594 23.5234 0.863281 23.625 1.26953 23.625H12.1367V14.7891H9.19141V11.3867H12.1367V8.84766C12.1367 7.42578 12.543 6.30859 13.3555 5.49609C14.168 4.73438 15.2344 4.32812 16.5547 4.32812C17.5703 4.32812 18.4844 4.37891 19.1953 4.42969V7.52734H17.3672C16.707 7.52734 16.25 7.67969 15.9961 7.98438C15.793 8.23828 15.6914 8.64453 15.6914 9.20312V11.3867H19.0938L18.6367 14.7891H15.6914V23.625H21.4805C21.8359 23.625 22.1406 23.5234 22.3945 23.2695C22.5977 23.0156 22.75 22.7109 22.75 22.3555V2.14453Z" fill="white"/>
</svg>
