<svg width="26" height="26" viewBox="0 0 26 26" fill="none" xmlns="http://www.w3.org/2000/svg">
<path opacity="0.7" d="M8.42969 20.4102C8.42969 20.4102 8.37891 20.3594 8.32812 20.3086C8.27734 20.3086 8.22656 20.2578 8.125 20.2578C7.92188 20.2578 7.87109 20.3594 7.87109 20.4609C7.87109 20.6133 7.92188 20.6641 8.125 20.6641C8.32812 20.6641 8.42969 20.5625 8.42969 20.4102ZM6.85547 20.207C6.85547 20.1055 6.95703 20.0547 7.16016 20.1055C7.3125 20.1562 7.36328 20.207 7.36328 20.3086C7.36328 20.4102 7.3125 20.4609 7.26172 20.4609C7.16016 20.5117 7.10938 20.5117 7.05859 20.4609C6.95703 20.4609 6.90625 20.4102 6.85547 20.3594C6.80469 20.3086 6.80469 20.2578 6.85547 20.207ZM9.08984 20.1055C9.24219 20.1055 9.34375 20.1562 9.34375 20.2578C9.34375 20.3594 9.29297 20.4609 9.14062 20.5117C9.03906 20.5117 8.98828 20.5117 8.9375 20.5117C8.88672 20.5117 8.83594 20.4102 8.83594 20.3086C8.83594 20.207 8.88672 20.1562 9.08984 20.1055ZM12.4414 0.65625C14.7266 0.65625 16.8594 1.21484 18.8398 2.28125C20.7695 3.39844 22.3438 4.87109 23.4609 6.69922C24.5781 8.62891 25.1875 10.7617 25.1875 13.0469C25.1875 15.8906 24.375 18.3789 22.8008 20.6133C21.2266 22.8477 19.1953 24.3711 16.6562 25.1836C16.3516 25.2852 16.1484 25.2344 15.9961 25.082C15.8438 24.9805 15.793 24.7773 15.793 24.5742V20.3086C15.793 19.2422 15.4883 18.4805 14.9297 17.9727C16.1484 17.8711 17.1133 17.668 17.7227 17.4648C18.6367 17.1602 19.3984 16.6523 19.9062 15.9414C20.4648 15.0781 20.7695 13.8594 20.7695 12.3359C20.7695 11.7266 20.6172 11.168 20.4141 10.6602C20.2109 10.3555 19.9062 9.89844 19.4492 9.39062C19.5508 9.08594 19.6523 8.67969 19.7031 8.17188C19.7031 7.46094 19.6016 6.69922 19.3477 5.9375C18.9922 5.83594 18.5352 5.9375 17.9258 6.14062C17.5195 6.34375 17.0117 6.54688 16.5039 6.85156L15.8438 7.30859C14.7773 7.00391 13.7109 6.85156 12.5938 6.85156C11.4766 6.85156 10.4609 7.00391 9.44531 7.30859L8.78516 6.85156C8.22656 6.54688 7.71875 6.34375 7.3125 6.14062C6.70312 5.9375 6.24609 5.83594 5.94141 5.9375C5.63672 6.69922 5.48438 7.46094 5.58594 8.17188C5.58594 8.67969 5.63672 9.03516 5.78906 9.33984C5.38281 9.84766 5.07812 10.3555 4.875 10.7617C4.67188 11.168 4.62109 11.7266 4.62109 12.3359C4.62109 13.8594 4.875 15.0781 5.43359 15.8906C5.89062 16.6016 6.60156 17.1602 7.56641 17.4648C8.17578 17.668 9.08984 17.8711 10.3086 17.9727C9.85156 18.3789 9.59766 18.9883 9.49609 19.6992C8.88672 20.0039 8.32812 20.1055 7.82031 20.0039C6.90625 19.9531 6.24609 19.4961 5.78906 18.6328C5.58594 18.2773 5.28125 17.9727 4.97656 17.7188C4.72266 17.6172 4.46875 17.4648 4.21484 17.3633L3.85938 17.3125C3.45312 17.3125 3.25 17.4141 3.25 17.5156C3.25 17.6172 3.30078 17.7695 3.50391 17.8711L3.75781 18.0742C3.96094 18.2266 4.21484 18.4297 4.46875 18.7344C4.67188 18.9883 4.82422 19.2422 4.97656 19.5469L5.17969 19.9531C5.33203 20.4609 5.63672 20.8672 6.14453 21.1211C6.55078 21.375 7.00781 21.5273 7.61719 21.5781C8.02344 21.6289 8.42969 21.6289 8.88672 21.5273L9.44531 21.4766L9.49609 24.5742C9.49609 24.7773 9.39453 24.9805 9.24219 25.082C9.08984 25.2344 8.88672 25.2852 8.63281 25.1836C6.04297 24.3711 3.96094 22.8477 2.38672 20.6133C0.761719 18.3789 0 15.8906 0 13.0469C0 10.7617 0.507812 8.67969 1.625 6.75C2.69141 4.87109 4.16406 3.39844 6.09375 2.28125C7.97266 1.21484 10.1055 0.65625 12.4414 0.65625ZM4.92578 18.1758C4.97656 18.125 5.07812 18.125 5.17969 18.2266C5.28125 18.3281 5.28125 18.4297 5.23047 18.4805C5.12891 18.582 5.07812 18.5312 4.97656 18.4297C4.875 18.3281 4.82422 18.2773 4.92578 18.1758ZM4.36719 17.7695C4.41797 17.7188 4.51953 17.7188 4.62109 17.7695C4.72266 17.8203 4.72266 17.8711 4.72266 17.9727C4.67188 18.0742 4.57031 18.0742 4.46875 17.9727C4.36719 17.9219 4.31641 17.8711 4.36719 17.7695ZM6.04297 19.5469C6.04297 19.5469 6.09375 19.5469 6.19531 19.5469C6.24609 19.5469 6.29688 19.5977 6.34766 19.6484C6.39844 19.6992 6.44922 19.75 6.44922 19.8008C6.44922 19.9023 6.44922 19.9531 6.44922 19.9531C6.34766 20.0547 6.19531 20.0547 6.09375 19.9023C5.99219 19.8516 5.99219 19.8008 5.99219 19.6992C5.99219 19.6484 5.99219 19.5977 6.04297 19.5469ZM5.43359 18.8359C5.48438 18.8359 5.53516 18.8359 5.58594 18.8359C5.63672 18.8359 5.6875 18.8867 5.73828 18.9375C5.83984 19.0898 5.83984 19.1914 5.73828 19.2422C5.6875 19.293 5.63672 19.293 5.58594 19.2422C5.53516 19.2422 5.48438 19.1914 5.43359 19.1406C5.33203 18.9883 5.33203 18.8867 5.43359 18.8359Z" fill="white"/>
</svg>
