<svg width="26" height="26" viewBox="0 0 26 26" fill="none" xmlns="http://www.w3.org/2000/svg">
<path opacity="0.7" d="M12.5938 0.65625C14.8281 0.65625 16.9609 1.26562 18.8906 2.38281C20.8203 3.5 22.3438 5.02344 23.4609 6.95312C24.5781 8.88281 25.1875 11.0156 25.1875 13.25C25.1875 15.5352 24.5781 17.6172 23.4609 19.5469C22.3438 21.4766 20.8203 23.0508 18.8906 24.168C16.9609 25.2852 14.8281 25.8438 12.5938 25.8438C10.3086 25.8438 8.22656 25.2852 6.29688 24.168C4.36719 23.0508 2.79297 21.4766 1.67578 19.5469C0.558594 17.6172 0 15.5352 0 13.25C0 11.0156 0.558594 8.88281 1.67578 6.95312C2.79297 5.02344 4.36719 3.5 6.29688 2.38281C8.22656 1.26562 10.3086 0.65625 12.5938 0.65625ZM8.98828 19.5469C10.7656 19.5469 12.2383 18.9883 13.3555 17.8203C14.4727 16.7031 15.0312 15.2305 15.0312 13.4023C15.0312 13.0469 14.9805 12.6914 14.9297 12.3359H8.98828V14.5195H12.543C12.4414 15.332 12.0352 15.9922 11.3242 16.5C10.6133 17.0078 9.85156 17.2109 8.98828 17.2109C7.87109 17.2109 6.95703 16.8555 6.19531 16.043C5.43359 15.2812 5.07812 14.3672 5.07812 13.25C5.07812 12.1836 5.43359 11.2695 6.19531 10.457C6.95703 9.69531 7.87109 9.28906 8.9375 9.28906C9.95312 9.28906 10.8164 9.64453 11.5273 10.2539L13.2031 8.57812C12.0352 7.51172 10.6133 6.95312 8.98828 6.95312C7.82031 6.95312 6.75391 7.25781 5.83984 7.81641C4.875 8.375 4.11328 9.13672 3.55469 10.1016C2.94531 11.0664 2.69141 12.1328 2.69141 13.25C2.69141 14.418 2.94531 15.4844 3.55469 16.4492C4.11328 17.4141 4.875 18.1758 5.83984 18.7344C6.75391 19.293 7.82031 19.5469 8.98828 19.5469ZM20.7188 14.1641H22.4961V12.3359H20.7188V10.5586H18.8906V12.3359H17.1133V14.1641H18.8906V15.9414H20.7188V14.1641Z" fill="white"/>
</svg>
