<svg width="49" height="108" viewBox="0 0 49 108" fill="none" xmlns="http://www.w3.org/2000/svg">
<path d="M41.8867 82.0879C37.707 83.9688 31.8555 84.8047 24.541 84.8047C17.2266 84.8047 11.375 83.9688 7.19531 82.0879L10.3301 87.3125L11.584 104.031C11.584 105.076 12.8379 105.912 15.3457 106.539C17.8535 107.166 20.9883 107.375 24.75 107.375C28.3027 107.375 31.4375 107.166 33.9453 106.539C36.4531 105.912 37.916 105.076 37.916 104.031L38.9609 87.3125L41.8867 82.0879ZM0.925781 29.2148C3.01562 30.4688 7.61328 31.0957 14.7188 31.5137C21.4062 31.9316 28.0938 31.9316 34.7812 31.5137C41.8867 31.0957 46.4844 30.4688 48.5742 29.2148L45.4395 57.6367L41.8867 60.7715C41.0508 61.3984 40.6328 61.6074 40.4238 61.6074C40.0059 61.6074 40.0059 61.6074 40.0059 61.3984C40.0059 61.3984 40.2148 60.9805 40.6328 60.1445L41.0508 59.9355C42.7227 57.8457 43.7676 56.1738 43.7676 55.1289C43.7676 54.293 43.1406 53.666 42.0957 53.457C41.0508 53.248 39.7969 53.666 38.543 54.9199L37.498 55.9648C37.498 55.5469 37.707 55.1289 37.707 54.7109C37.707 54.293 37.2891 53.875 36.8711 53.875C36.6621 53.875 36.4531 54.084 36.2441 54.293C35.8262 54.7109 35.6172 55.3379 35.4082 56.1738L34.7812 57.6367L34.5723 57.8457C32.2734 60.3535 30.6016 61.3984 29.7656 61.3984C29.3477 61.3984 29.3477 61.1895 29.5566 60.3535C29.7656 59.7266 30.3926 58.0547 31.4375 55.5469L35.1992 46.5605C35.1992 46.1426 35.1992 45.7246 34.9902 45.5156C34.5723 45.3066 34.3633 45.0977 34.3633 45.0977C33.5273 45.0977 33.1094 45.5156 32.9004 46.1426L30.8105 51.3672C28.7207 56.8008 27.4668 59.9355 27.4668 60.3535C26.8398 60.7715 26.4219 61.1895 26.0039 61.1895C24.959 61.6074 24.541 61.6074 24.541 60.9805C24.541 60.5625 24.75 59.7266 25.168 58.4727L26.6309 55.1289C26.8398 54.502 26.8398 54.084 26.6309 53.666C26.2129 53.457 26.0039 53.248 25.5859 53.248C25.168 53.248 24.959 53.666 24.75 54.293L24.332 55.3379C24.123 56.1738 23.7051 57.0098 23.0781 58.2637C22.4512 59.5176 21.8242 60.3535 20.9883 60.7715C20.3613 61.1895 19.7344 61.1895 19.3164 61.1895C18.8984 61.1895 18.6895 60.5625 19.1074 59.3086C19.3164 58.4727 19.7344 57.4277 20.5703 55.9648L21.1973 55.1289C21.4062 54.293 21.4062 53.875 20.9883 53.457H20.7793C19.9434 53.248 19.5254 53.457 19.1074 54.293C18.4805 55.5469 18.0625 56.8008 17.6445 57.6367V57.8457C16.5996 60.3535 16.1816 62.0254 16.5996 62.6523C16.8086 63.4883 17.4355 63.6973 18.4805 63.6973C20.3613 63.6973 21.8242 62.6523 23.0781 60.5625C22.6602 62.6523 22.8691 63.6973 23.7051 63.6973C24.541 63.9062 25.7949 63.4883 27.2578 62.2344L27.4668 62.6523C27.4668 63.2793 27.8848 63.6973 28.5117 63.6973C28.9297 63.9062 29.7656 63.9062 30.6016 63.4883C31.4375 63.0703 32.2734 62.4434 33.5273 61.1895C33.5273 61.1895 33.3184 61.3984 33.3184 61.8164L31.8555 64.9512C30.8105 67.041 30.1836 68.5039 30.1836 68.9219L29.9746 69.5488C29.9746 69.9668 29.9746 70.1758 30.3926 70.3848C30.6016 70.5938 31.0195 70.5938 31.4375 70.3848C31.8555 70.1758 32.0645 69.7578 32.4824 69.3398L34.5723 63.4883L35.4082 61.8164C35.8262 60.5625 36.4531 59.5176 37.0801 58.6816C37.707 57.8457 38.334 57.0098 38.9609 56.5918C39.3789 56.1738 40.0059 55.7559 40.6328 55.7559C41.0508 55.7559 41.4688 55.7559 41.4688 56.1738C41.4688 56.5918 41.0508 57.0098 40.4238 57.6367L39.7969 58.6816C38.125 60.5625 37.498 61.8164 37.498 62.4434C37.498 63.2793 37.916 63.6973 38.752 63.6973C39.5879 63.9062 40.4238 63.9062 41.2598 63.4883C42.0957 63.0703 43.1406 62.2344 44.8125 60.5625L45.2305 60.3535L42.9316 79.998C42.5137 80.834 40.8418 81.4609 37.498 82.2969C33.3184 83.3418 29.1387 83.7598 24.541 83.7598C19.9434 83.7598 15.5547 83.3418 11.584 82.2969C8.03125 81.4609 6.15039 80.834 6.15039 79.998L4.47852 63.4883C4.89648 63.9062 5.31445 63.9062 6.15039 63.9062C7.4043 63.9062 8.86719 63.2793 10.5391 61.6074L12.002 60.1445C10.957 63.0703 10.3301 64.9512 10.3301 65.5781C10.3301 66.2051 10.3301 66.623 10.5391 66.832C10.5391 67.041 10.748 67.041 11.166 67.041C11.375 67.041 11.584 67.041 11.793 66.623C12.002 66.2051 12.2109 65.7871 12.4199 65.3691L14.0918 59.9355C14.3008 58.8906 14.7188 57.6367 15.3457 56.1738C15.7637 54.9199 16.1816 53.875 16.1816 53.0391C16.1816 52.2031 15.7637 51.7852 15.3457 51.7852C14.7188 51.7852 14.3008 52.2031 14.0918 52.8301L13.0469 55.9648C12.4199 57.0098 11.375 58.2637 10.1211 59.5176C8.86719 60.7715 7.82227 61.3984 6.98633 61.3984C6.56836 61.3984 6.15039 61.1895 5.94141 60.7715C5.52344 59.9355 5.52344 58.4727 6.15039 56.5918C6.56836 54.7109 7.4043 52.8301 8.6582 50.7402C9.70312 48.6504 10.957 47.1875 12.2109 46.3516C13.6738 45.3066 14.9277 45.5156 15.7637 46.9785C16.1816 48.0234 16.5996 48.4414 17.0176 48.4414C17.4355 48.4414 17.6445 48.4414 17.8535 48.0234C18.0625 47.6055 18.0625 47.1875 18.0625 46.5605C18.0625 46.3516 17.8535 45.9336 17.4355 45.3066C17.0176 44.8887 16.3906 44.4707 15.9727 44.0527C14.7188 43.4258 13.2559 43.4258 12.002 43.8438C10.1211 44.6797 8.44922 46.3516 6.77734 48.6504C5.31445 50.7402 4.26953 53.0391 3.64258 55.3379L0.925781 29.2148ZM48.9922 27.334H48.7832C48.7832 26.916 47.3203 26.2891 44.8125 25.6621C42.3047 25.2441 38.9609 24.8262 34.7812 24.4082L36.8711 15.8398L48.7832 3.0918C49.2012 2.88281 48.7832 2.25586 47.7383 1.21094C47.3203 0.792969 46.9023 0.583984 46.4844 0.583984C46.0664 0.583984 45.6484 0.583984 45.6484 0.583984L32.9004 13.959L30.1836 24.1992L24.75 23.9902C18.0625 23.9902 12.2109 24.4082 7.61328 25.0352C2.80664 25.8711 0.507812 26.498 0.507812 27.334C0.507812 28.7969 4.6875 29.8418 13.0469 30.2598C20.7793 30.8867 28.5117 30.8867 36.4531 30.2598C44.8125 29.8418 48.9922 28.7969 48.9922 27.334ZM34.3633 28.3789C34.3633 28.5879 33.9453 28.7969 33.5273 29.0059C32.9004 29.2148 32.2734 29.2148 31.4375 29.2148C30.6016 29.2148 29.9746 29.2148 29.5566 29.0059C28.9297 28.7969 28.7207 28.5879 28.7207 28.3789C28.7207 28.3789 28.9297 28.1699 29.3477 27.9609L29.1387 28.1699C29.1387 28.5879 29.7656 28.5879 31.4375 28.5879C32.9004 28.5879 33.7363 28.5879 33.7363 28.1699L33.9453 27.9609C34.1543 28.1699 34.3633 28.3789 34.3633 28.3789Z" fill="white" fill-opacity="0.7"/>
</svg>
