<svg width="94" height="94" viewBox="0 0 94 94" fill="none" xmlns="http://www.w3.org/2000/svg">
<path d="M0 0.0625H93.625V93.6875H0V0.0625ZM50.9922 72.998V43.1133H42.2148V72.998C42.2148 75.0879 41.7969 76.5508 40.9609 77.3867C40.125 78.2227 38.8711 78.4316 37.4082 78.4316C35.9453 78.4316 34.9004 78.0137 34.0645 77.1777C33.2285 76.7598 32.6016 75.7148 31.7656 74.043L24.6602 78.2227C27.168 83.6562 31.5566 86.373 37.8262 86.373C41.7969 86.373 44.9316 85.3281 47.4395 83.0293C49.7383 80.9395 50.9922 77.5957 50.9922 72.998ZM71.6816 86.373C75.8613 86.373 79.4141 85.3281 82.1309 83.2383C84.8477 81.1484 86.3105 78.0137 86.3105 74.043C86.3105 70.6992 85.2656 67.7734 83.3848 65.6836C81.5039 64.0117 78.5781 62.1309 74.6074 60.25L72.5176 59.4141C70.4277 58.5781 68.9648 57.7422 68.1289 56.9062C67.293 56.2793 67.084 55.4434 67.084 54.1895C67.084 52.9355 67.293 52.0996 68.1289 51.2637C68.9648 50.6367 70.0098 50.2188 71.2637 50.2188C72.5176 50.2188 73.5625 50.6367 74.3984 51.0547C75.2344 51.6816 76.0703 52.7266 76.9062 53.9805L83.8027 49.5918C82.3398 47.084 80.668 45.4121 78.5781 44.1582C76.4883 43.1133 74.1895 42.4863 71.2637 42.4863C67.293 42.4863 64.1582 43.7402 61.8594 45.8301C59.3516 48.1289 58.3066 50.8457 58.3066 54.1895C58.3066 57.5332 59.1426 60.459 61.2324 62.5488C62.9043 64.4297 65.4121 66.1016 68.9648 67.3555L71.0547 68.4004C73.5625 69.6543 75.0254 70.4902 75.8613 70.9082C76.9062 71.7441 77.5332 72.998 77.5332 74.252C77.5332 75.5059 76.9062 76.5508 75.8613 77.3867C74.6074 78.2227 73.1445 78.6406 71.4727 78.6406C67.9199 78.6406 64.9941 76.9688 62.9043 73.207L55.7988 77.3867C57.0527 80.1035 59.1426 82.1934 61.6504 83.8652C64.3672 85.5371 67.7109 86.373 71.6816 86.373Z" fill="white" fill-opacity="0.7"/>
</svg>
