<svg width="110" height="74" viewBox="0 0 110 74" fill="none" xmlns="http://www.w3.org/2000/svg">
<rect width="110" height="74" fill="white" fill-opacity="0"/>
<rect width="110" height="74" fill="black" fill-opacity="0"/>
<rect width="38.7023" height="64.8705" fill="black" fill-opacity="0" transform="translate(0 9.1295)"/>
<path d="M11.7411 74L0 9.1295H12.2516L19.2094 52.8679L25.6755 9.1295H38.7023L26.8099 74H11.7411Z" fill="white"/>
<rect width="69.3503" height="32.8133" fill="black" fill-opacity="0" transform="translate(40.6497)"/>
<path d="M48.0234 32.8133C45.3953 32.8133 43.5235 32.0761 42.3702 30.6018C41.2169 29.1275 40.6497 26.9916 40.6497 24.213V17.484C40.6497 14.6866 41.2169 12.5696 42.3702 11.1142C43.5235 9.65875 45.3953 8.92159 48.0234 8.92159C50.4813 8.92159 52.2774 9.50754 53.3929 10.6605C54.5084 11.8135 55.0756 13.6281 55.0756 16.0664V17.9377H49.9708V15.9719C49.9708 14.8 49.8384 13.9872 49.5548 13.5147C49.2712 13.061 48.7797 12.8153 48.099 12.8153C47.3238 12.8153 46.8133 13.0799 46.5486 13.6281C46.2839 14.1762 46.1516 15.1969 46.1516 16.6713V25.1203C46.1516 26.5946 46.3029 27.5964 46.5865 28.1068C46.8701 28.6171 47.3805 28.8817 48.099 28.8817C48.8364 28.8817 49.328 28.636 49.5926 28.1257C49.8573 27.6153 49.9897 26.8593 49.9897 25.8386V23.3625H55.0945V25.555C55.0945 27.9556 54.5273 29.7701 53.374 30.9798C52.2207 32.1895 50.4435 32.8133 48.0234 32.8133Z" fill="white"/>
<path d="M65.6256 32.8133C63.1299 32.8133 61.2771 32.1139 60.067 30.7152C58.857 29.3165 58.2331 27.3129 58.2331 24.7045V17.0493C58.2331 14.4409 58.8381 12.4373 60.067 11.0386C61.296 9.63985 63.1489 8.94049 65.6256 8.94049C68.1213 8.94049 69.9931 9.63985 71.241 11.0386C72.4888 12.4373 73.0938 14.4409 73.0938 17.0493V24.7045C73.0938 27.3129 72.4699 29.3165 71.241 30.7152C70.012 32.1139 68.1403 32.8133 65.6256 32.8133ZM65.6446 28.9573C66.0794 28.9573 66.4576 28.8628 66.7222 28.6549C67.0058 28.4659 67.2138 28.1635 67.3273 27.7476C67.4596 27.3318 67.5352 26.9349 67.5731 26.5568C67.6109 26.1788 67.6298 25.6685 67.6298 25.0636V16.6713C67.6298 16.1798 67.6109 15.7829 67.592 15.4616C67.5731 15.1402 67.5352 14.8 67.4596 14.422C67.384 14.0439 67.2894 13.7415 67.1382 13.5336C66.9869 13.3257 66.7979 13.1367 66.5521 12.9854C66.3063 12.8342 66.0038 12.7586 65.6256 12.7586C65.1908 12.7586 64.8127 12.8531 64.548 13.0611C64.2644 13.269 64.0564 13.5714 63.9429 13.9872C63.8106 14.4031 63.735 14.8 63.6972 15.178C63.6593 15.5561 63.6404 16.0664 63.6404 16.6713V25.0636C63.6404 25.555 63.6593 25.952 63.6782 26.2733C63.6972 26.5946 63.735 26.9349 63.8106 27.3129C63.8862 27.6909 63.9808 27.9745 64.132 28.2013C64.2833 28.4092 64.4723 28.5982 64.7181 28.7494C64.9828 28.8817 65.2853 28.9573 65.6446 28.9573Z" fill="white"/>
<path d="M82.1124 32.8133C80.2217 32.8133 78.8037 32.1328 77.8584 30.7908C76.913 29.4488 76.4404 27.3129 76.4404 24.402V17.6731C76.4404 16.4255 76.5349 15.3103 76.724 14.3086C76.913 13.3068 77.2155 12.3806 77.6315 11.5489C78.0474 10.7172 78.6146 10.0746 79.3709 9.62094C80.1083 9.1673 80.9969 8.94049 82.0368 8.94049C83.4926 8.94049 84.8728 9.52644 86.1396 10.7172V0H91.6226V32.4352H86.1396V30.8475C84.9106 32.1517 83.5682 32.7944 82.1124 32.8133ZM84.022 28.9006C84.6837 28.9006 85.3833 28.6927 86.1396 28.2769V13.4769C85.4022 13.0043 84.6837 12.7775 84.0031 12.7775C83.2657 12.7775 82.7552 13.1178 82.4338 13.7793C82.1124 14.4409 81.9612 15.2914 81.9612 16.331V24.8179C81.9612 25.6496 81.999 26.3489 82.0935 26.8971C82.188 27.4452 82.396 27.9178 82.7174 28.3147C83.0199 28.6927 83.4737 28.9006 84.022 28.9006Z" fill="white"/>
<path d="M102.834 32.8133C100.187 32.8133 98.2778 32.0761 97.1244 30.6207C95.9711 29.1653 95.385 27.0105 95.385 24.1374V17.5974C95.385 14.7433 95.9711 12.5885 97.1433 11.1142C98.3156 9.63985 100.206 8.92159 102.815 8.92159C104.196 8.92159 105.368 9.1295 106.313 9.52644C107.259 9.92337 107.996 10.5471 108.525 11.3599C109.055 12.1727 109.433 13.1367 109.66 14.214C109.887 15.2914 110 16.5768 110 18.0889V21.1132H100.849V24.5911C100.849 25.0825 100.849 25.4416 100.868 25.7252C100.868 25.9898 100.906 26.3111 100.944 26.6891C100.981 27.0672 101.038 27.3696 101.133 27.5775C101.227 27.7854 101.341 27.9934 101.473 28.2202C101.605 28.447 101.813 28.5793 102.04 28.6738C102.267 28.7683 102.551 28.8061 102.853 28.8061C103.591 28.8061 104.101 28.5415 104.385 28.0312C104.668 27.5208 104.82 26.7648 104.82 25.7819V24.4587H110V25.3849C110 27.7854 109.395 29.6189 108.204 30.8853C107.013 32.1517 105.198 32.8133 102.834 32.8133ZM100.83 18.3913H104.782V16.1798C104.782 15.0079 104.63 14.1573 104.347 13.647C104.044 13.1367 103.534 12.8909 102.796 12.8909C102.04 12.8909 101.53 13.1745 101.246 13.7604C100.981 14.3275 100.83 15.386 100.83 16.8981V18.3913Z" fill="white"/>
</svg>
