<svg width="135" height="102" viewBox="0 0 135 102" fill="none" xmlns="http://www.w3.org/2000/svg">
<path d="M116.15 58.3984C119.912 58.3984 123.256 59.2344 126.182 60.6973C129.107 62.1602 131.197 64.041 132.66 66.3398C134.123 68.6387 134.75 70.9375 134.75 73.2363C134.541 75.7441 133.496 77.625 131.824 79.2969C130.57 80.5508 129.316 81.1777 128.48 81.3867C127.645 81.5957 127.227 81.5957 127.227 81.1777C127.227 80.7598 127.436 80.3418 128.271 79.9238C130.361 78.6699 131.615 76.7891 132.033 74.6992C132.033 73.4453 131.824 72.1914 131.197 70.5195C130.361 68.8477 128.898 67.1758 127.227 65.9219C124.928 64.459 122.002 63.4141 118.449 62.9961C113.434 62.5781 109.254 62.9961 105.492 64.459C106.119 66.3398 106.537 68.0117 106.537 69.2656C106.537 72.4004 105.074 75.1172 101.73 77.625C100.268 78.6699 98.8047 79.5059 97.1328 80.1328C95.4609 80.7598 94.416 80.9688 93.5801 80.7598C90.8633 80.3418 90.2363 78.043 91.6992 73.8633C92.1172 72.6094 92.9531 70.9375 94.207 69.2656C95.4609 67.5938 96.9238 66.1309 98.8047 64.459L98.3867 63.832C97.1328 61.7422 96.5059 60.2793 96.2969 59.2344C95.8789 57.9805 95.4609 56.5176 95.252 55.2637L95.043 53.8008L92.9531 57.7715C91.0723 61.1152 89.4004 64.041 87.7285 66.5488L87.1016 67.5938C87.9375 69.8926 88.3555 71.7734 88.5645 73.4453C88.5645 76.998 87.3105 79.7148 84.5938 81.8047C83.1309 82.6406 81.668 83.4766 80.4141 84.1035C78.9512 84.7305 77.2793 85.1484 75.3984 85.1484C73.7266 85.1484 72.6816 84.9395 72.0547 84.5215C71.2188 83.8945 71.0098 82.8496 71.4277 81.5957C71.6367 81.1777 73.3086 79.0879 76.4434 75.3262L81.041 69.4746L80.2051 67.5938C79.1602 65.7129 78.5332 64.25 78.3242 63.2051C77.9062 61.9512 77.4883 60.4883 77.2793 59.2344L77.0703 57.7715L74.9805 62.7871C73.3086 66.7578 71.6367 70.1016 70.3828 72.8184C68.293 76.998 66.4121 80.3418 65.1582 82.4316L64.7402 83.0586C63.0684 85.7754 61.3965 87.0293 59.9336 87.0293C58.2617 87.0293 57.2168 86.1934 56.7988 84.1035C56.3809 82.8496 56.1719 80.9688 56.1719 78.8789L56.5898 75.9531V76.1621C55.3359 78.8789 54.291 81.3867 53.2461 83.4766C52.2012 85.3574 51.3652 86.6113 50.9473 87.2383C49.9023 88.2832 48.6484 88.7012 47.3945 88.7012C46.1406 88.7012 45.0957 88.4922 44.4688 87.6562C43.2148 86.6113 42.1699 84.7305 41.334 82.2227C40.498 79.7148 40.0801 77.207 40.2891 74.9082C40.707 71.3555 41.334 68.4297 42.1699 65.9219L34.6465 70.3105V70.5195C35.9004 73.0273 36.3184 75.9531 36.3184 79.7148C35.9004 84.1035 34.6465 87.8652 32.5566 91.209C30.0488 94.9707 26.9141 97.8965 22.7344 99.5684C18.5547 101.24 14.375 101.658 10.1953 100.404C8.94141 100.195 7.89648 99.3594 7.06055 97.8965C6.01562 96.6426 5.38867 94.9707 5.38867 92.8809C4.9707 90.582 5.38867 88.0742 6.64258 85.5664C7.89648 82.6406 11.2402 79.2969 16.4648 75.7441C19.3906 73.6543 22.7344 71.7734 26.2871 70.1016L27.332 69.4746C26.0781 68.6387 23.7793 66.9668 20.4355 64.459C15.002 60.6973 11.0312 57.7715 8.52344 55.2637C4.34375 51.293 1.83594 47.3223 1.20898 43.3516C0.582031 41.0527 1 38.127 2.67188 34.7832C4.34375 30.6035 7.6875 26.2148 12.2852 22.0352C16.2559 18.2734 21.2715 14.7207 27.123 11.377C32.1387 8.45117 37.7812 5.94336 43.8418 3.85352C49.6934 1.76367 55.7539 0.71875 61.8145 0.71875C67.666 0.71875 72.8906 1.97266 77.0703 4.0625C81.25 6.15234 83.7578 9.28711 84.8027 13.0488C85.6387 16.8105 85.4297 20.7812 83.7578 24.752C82.0859 28.9316 79.5781 32.4844 76.2344 35.8281C72.8906 39.1719 68.9199 41.6797 64.7402 43.3516C59.5156 45.4414 54.5 46.6953 49.4844 46.6953C45.5137 47.1133 42.3789 46.6953 39.8711 45.8594C37.7812 45.2324 35.9004 44.1875 34.6465 42.9336C33.3926 41.8887 32.5566 40.8438 32.1387 39.7988C31.7207 38.7539 31.5117 38.127 31.9297 37.918C32.3477 37.709 32.5566 37.709 32.7656 37.709L33.8105 38.7539C34.6465 39.7988 36.1094 40.6348 37.9902 41.2617C40.498 42.3066 43.6328 42.7246 47.3945 42.3066C54.082 41.4707 59.9336 39.3809 65.3672 35.8281C70.1738 32.9023 73.7266 29.3496 76.0254 25.1699C78.1152 20.9902 78.5332 17.4375 77.2793 14.3027C76.2344 12.2129 73.9355 10.75 70.1738 9.70508C66.4121 8.66016 61.8145 8.45117 56.3809 9.28711C50.3203 10.332 44.0508 12.4219 37.5723 15.5566C20.4355 24.334 11.4492 33.1113 11.0312 42.0977C10.8223 45.4414 12.0762 48.7852 14.793 51.7109C16.2559 53.8008 19.1816 56.3086 23.7793 59.6523C27.541 62.5781 30.0488 64.877 31.7207 66.5488L32.1387 66.9668L45.5137 59.6523C46.7676 57.5625 48.6484 55.6816 50.9473 54.0098C53.2461 52.3379 55.3359 51.502 57.2168 51.502C58.8887 51.502 60.1426 52.3379 60.9785 53.8008C61.3965 55.0547 61.6055 56.5176 61.6055 58.1895L61.1875 60.2793L61.8145 59.8613C62.4414 59.4434 63.2773 59.2344 64.3223 59.6523C65.3672 60.0703 65.7852 60.6973 65.7852 61.7422L65.1582 64.041C63.9043 69.0566 63.0684 72.8184 62.6504 74.9082C62.2324 76.1621 62.2324 76.998 62.2324 77.834C62.2324 78.6699 62.4414 79.0879 62.6504 79.0879C62.6504 79.0879 63.0684 78.6699 63.4863 77.834L64.1133 76.3711V76.5801L66.4121 71.7734C71.8457 59.8613 74.7715 53.1738 75.1895 51.7109L76.4434 47.7402C76.4434 47.5312 77.0703 47.3223 78.1152 46.9043C78.9512 46.6953 80.2051 46.4863 81.668 46.4863C83.5488 46.4863 84.5938 47.1133 84.5938 47.9492L84.3848 48.9941C83.5488 51.084 83.1309 52.7559 82.9219 53.8008C82.7129 55.0547 82.7129 56.3086 83.1309 57.9805L83.3398 58.8164C83.3398 59.8613 83.9668 61.3242 85.2207 63.4141C86.8926 60.6973 88.3555 57.7715 90.0273 54.8457C91.9082 51.293 92.9531 48.9941 93.3711 47.7402C93.5801 46.4863 93.998 45.0234 94.416 43.7695C94.416 43.3516 95.043 43.1426 96.0879 42.9336C97.1328 42.7246 98.3867 42.5156 99.6406 42.5156C101.521 42.5156 102.566 43.1426 102.775 43.9785L102.357 44.8145C101.521 47.1133 101.104 48.7852 101.104 49.8301C100.895 51.084 100.895 52.3379 101.312 54.0098V54.8457C101.312 55.8906 102.148 57.5625 103.402 59.6523L104.029 61.1152C107.791 59.4434 111.762 58.3984 116.15 58.3984ZM26.4961 88.7012C30.6758 84.1035 32.1387 78.4609 30.4668 72.1914L27.123 74.2812C23.3613 76.5801 20.2266 78.8789 18.1367 80.9688C15.8379 83.0586 14.375 85.5664 13.748 88.0742C13.1211 90.582 13.5391 92.2539 14.793 93.0898C16.0469 93.9258 17.7188 93.7168 20.2266 92.8809C22.5254 92.0449 24.6152 90.791 26.4961 88.7012ZM54.5 69.4746C55.127 67.8027 55.9629 65.5039 56.7988 62.9961C57.8438 59.6523 58.2617 57.7715 57.8438 57.1445C57.4258 56.7266 56.7988 56.5176 55.9629 56.9355C54.918 57.3535 53.873 58.1895 53.0371 59.2344C52.2012 60.0703 51.3652 61.3242 50.5293 62.9961C49.4844 64.668 48.8574 66.3398 48.4395 67.8027C47.3945 70.7285 46.9766 73.4453 47.1855 76.1621C47.1855 79.0879 47.6035 80.5508 48.4395 80.7598C49.2754 80.9688 50.1113 79.9238 51.1562 77.625C51.7832 76.5801 52.6191 74.4902 53.6641 71.5645C54.082 70.7285 54.291 69.8926 54.5 69.4746ZM77.6973 80.5508C81.041 78.4609 82.9219 76.1621 82.9219 73.2363V73.0273L80.623 75.9531L76.4434 80.5508C76.2344 80.7598 76.2344 80.9688 76.4434 80.9688C76.4434 81.1777 76.8613 80.9688 77.6973 80.5508ZM95.6699 76.5801C99.2227 75.3262 101.104 72.8184 101.104 69.2656C101.104 68.8477 100.895 68.0117 100.686 66.9668C98.8047 68.6387 97.5508 70.5195 96.7148 72.1914C95.4609 74.6992 95.043 76.1621 95.6699 76.5801Z" fill="white" fill-opacity="0.7"/>
</svg>
