<svg width="105" height="104" viewBox="0 0 105 104" fill="none" xmlns="http://www.w3.org/2000/svg">
<path d="M11.957 33.6934C9.24023 39.5449 7.98633 45.6055 7.98633 51.875C7.98633 60.6523 10.2852 68.5938 14.8828 75.6992C19.4805 82.8047 25.541 88.2383 33.0645 91.791L11.957 33.6934ZM82.5938 49.5762C82.5938 51.248 82.1758 53.3379 81.7578 55.4277C81.3398 56.8906 80.5039 59.1895 79.668 62.5332L74.6523 78.834L58.7695 30.9766L63.7852 30.5586C64.4121 30.5586 64.8301 30.3496 65.248 29.7227C65.457 29.0957 65.457 28.4688 65.0391 27.8418C64.6211 27.2148 64.2031 27.0059 63.3672 27.0059L59.1875 27.2148C56.0527 27.4238 53.5449 27.4238 51.6641 27.4238C49.7832 27.4238 47.2754 27.4238 44.1406 27.2148L39.9609 27.0059C39.125 27.0059 38.498 27.2148 38.0801 27.8418C37.6621 28.4688 37.6621 29.0957 38.0801 29.7227C38.2891 30.3496 38.707 30.5586 39.543 30.5586C41.0059 30.9766 42.6777 30.9766 44.3496 30.9766L51.2461 49.9941L41.4238 79.252L25.332 30.9766L30.3477 30.5586C30.9746 30.5586 31.3926 30.3496 31.8105 29.7227C32.0195 29.0957 32.0195 28.4688 31.6016 27.8418C31.1836 27.2148 30.7656 27.0059 30.1387 27.0059L25.959 27.2148C22.6152 27.4238 20.1074 27.4238 18.2266 27.4238H15.3008C19.2715 21.3633 24.4961 16.5566 31.1836 12.7949C37.6621 9.24219 44.7676 7.36133 52.5 7.36133C58.1426 7.36133 63.5762 8.40625 68.8008 10.4961C73.8164 12.5859 78.4141 15.5117 82.5938 19.0645H81.9668C79.877 19.0645 77.9961 19.9004 76.5332 21.5723C75.0703 23.2441 74.4434 24.916 74.4434 27.0059C74.4434 28.6777 74.8613 30.1406 75.6973 31.8125C76.1152 32.8574 76.9512 34.5293 78.4141 36.6191L78.832 37.4551C79.877 39.5449 80.7129 41.2168 81.3398 42.4707C82.1758 44.9785 82.5938 47.2773 82.5938 49.5762ZM53.3359 55.8457L66.9199 93.2539L67.3379 93.8809C62.3223 95.5527 57.5156 96.3887 52.5 96.3887C48.3203 96.3887 44.1406 95.7617 39.9609 94.5078L53.3359 55.8457ZM91.5801 30.5586C95.1328 37.2461 97.0137 44.3516 97.0137 51.875C97.0137 60.0254 94.9238 67.5488 90.9531 74.2363C86.7734 81.1328 81.5488 86.5664 74.8613 90.3281L88.4453 51.0391C90.5352 45.6055 91.7891 40.1719 91.7891 35.1562C91.7891 33.4844 91.5801 32.0215 91.5801 30.5586ZM104.328 51.875C104.328 42.6797 101.82 33.9023 97.2227 25.9609C92.625 18.0195 86.3555 11.75 78.4141 7.15234C70.4727 2.55469 61.6953 0.046875 52.5 0.046875C43.0957 0.046875 34.5273 2.55469 26.5859 7.15234C18.6445 11.75 12.166 18.0195 7.56836 25.9609C2.9707 33.9023 0.671875 42.6797 0.671875 51.875C0.671875 61.2793 2.9707 69.8477 7.56836 77.7891C12.166 85.7305 18.6445 92.209 26.5859 96.8066C34.5273 101.404 43.0957 103.703 52.5 103.703C61.6953 103.703 70.4727 101.404 78.4141 96.8066C86.3555 92.209 92.625 85.7305 97.2227 77.7891C101.82 69.8477 104.328 61.2793 104.328 51.875ZM102.029 51.875C102.029 60.8613 99.7305 69.2207 95.3418 76.7441C90.7441 84.2676 84.6836 90.3281 77.1602 94.7168C69.6367 99.3145 61.2773 101.404 52.5 101.404C43.5137 101.404 35.1543 99.3145 27.6309 94.7168C20.1074 90.3281 14.0469 84.2676 9.6582 76.7441C5.06055 69.2207 2.9707 60.8613 2.9707 51.875C2.9707 43.0977 5.06055 34.7383 9.6582 27.2148C14.0469 19.6914 20.1074 13.6309 27.6309 9.0332C35.1543 4.64453 43.5137 2.3457 52.5 2.3457C61.2773 2.3457 69.6367 4.64453 77.1602 9.0332C84.6836 13.6309 90.7441 19.6914 95.3418 27.2148C99.7305 34.7383 102.029 43.0977 102.029 51.875Z" fill="white" fill-opacity="0.7"/>
</svg>
